<svg xmlns="http://www.w3.org/2000/svg" viewBox="0 0 294.88 77.11"><defs><style>.cls-1{fill:#ee8d22;}</style></defs><title>Asset 12</title><g id="Layer_2" data-name="Layer 2"><g id="Layer_1-2" data-name="Layer 1"><path class="cls-1" d="M31.55,42.06h-14a3.51,3.51,0,1,1,0-7h21a7,7,0,0,0,0-14h-21a17.53,17.53,0,1,0,0,35.05h14a3.51,3.51,0,0,1,0,7H7a7,7,0,1,0,0,14H31.55a17.53,17.53,0,0,0,0-35Z"/><path class="cls-1" d="M81.07,21a28,28,0,1,0,28.05,28A28.1,28.1,0,0,0,81.07,21Zm0,42.06a14,14,0,1,1,14-14A14,14,0,0,1,81.07,63.09Z"/><path class="cls-1" d="M142.74,21a27.56,27.56,0,0,0-14,3.83V7a7,7,0,0,0-14,0v63.1a7,7,0,0,0,14,0v-21a14,14,0,1,1,28,0v21a7,7,0,0,0,14,0v-21A28.1,28.1,0,0,0,142.74,21Z"/><path class="cls-1" d="M229.73,61.29a28.28,28.28,0,0,0,2.85-12.22V28a7,7,0,0,0-14,0v21a14,14,0,0,1-28,0V28a7,7,0,0,0-14,0v21a28.09,28.09,0,0,0,28,28,26.82,26.82,0,0,0,13.8-3.72s0,0,0,0A31.66,31.66,0,0,0,229.73,61.29Z"/><path class="cls-1" d="M266.84,21a27.5,27.5,0,0,0-14,3.83V7a7,7,0,1,0-14,0V49.07a27.92,27.92,0,0,0,3.61,13.81l-.1,0a31.14,31.14,0,0,0,10.45,10.56l.06-.1a27.62,27.62,0,0,0,14,3.72,28,28,0,1,0,0-56.08Zm0,42.06a14,14,0,1,1,14-14A14,14,0,0,1,266.84,63.09Z"/></g></g></svg>